<svg width="110" height="112" viewBox="0 0 110 112" fill="none" xmlns="http://www.w3.org/2000/svg">
<rect x="58.5894" y="2" width="49.0526" height="50.2316" rx="11" stroke="#3B82F6" stroke-width="4"/>
<path d="M72.4041 16.0168L94.8041 38.4168" stroke="#FF0000" stroke-width="4" stroke-linecap="round"/>
<path d="M72.4041 16.0168L94.8041 38.4168" stroke="#FF0000" stroke-width="4" stroke-linecap="round"/>
<path d="M72.4041 16.0168L94.8041 38.4168" stroke="#3B82F6" stroke-width="4" stroke-linecap="round"/>
<path d="M72.4041 38.4168L94.8041 16.0168" stroke="#FF0000" stroke-width="4" stroke-linecap="round"/>
<path d="M72.4041 38.4168L94.8041 16.0168" stroke="#FF0000" stroke-width="4" stroke-linecap="round"/>
<path d="M72.4041 38.4168L94.8041 16.0168" stroke="#3B82F6" stroke-width="4" stroke-linecap="round"/>
<rect x="2" y="2" width="49.0526" height="50.2316" rx="11" stroke="#3B82F6" stroke-width="4"/>
<path d="M12.9685 27.1158L38.9053 27.1158" stroke="#FF0000" stroke-width="4" stroke-linecap="round"/>
<path d="M12.9685 27.1158L38.9053 27.1158" stroke="#FF0000" stroke-width="4" stroke-linecap="round"/>
<path d="M12.9685 27.1158L38.9053 27.1158" stroke="#3B82F6" stroke-width="4" stroke-linecap="round"/>
<path d="M25.9368 40.0842L25.9368 15.3263" stroke="#FF0000" stroke-width="4" stroke-linecap="round"/>
<path d="M25.9368 40.0842L25.9368 15.3263" stroke="#FF0000" stroke-width="4" stroke-linecap="round"/>
<path d="M25.9368 40.0842L25.9368 15.3263" stroke="#3B82F6" stroke-width="4" stroke-linecap="round"/>
<rect x="2" y="59.7683" width="49.0526" height="50.2316" rx="11" stroke="#3B82F6" stroke-width="4"/>
<path d="M14.1475 84.8841L40.0843 84.8841" stroke="#FF0000" stroke-width="4" stroke-linecap="round"/>
<path d="M14.1475 84.8841L40.0843 84.8841" stroke="#FF0000" stroke-width="4" stroke-linecap="round"/>
<path d="M14.1475 84.8841L40.0843 84.8841" stroke="#3B82F6" stroke-width="4" stroke-linecap="round"/>
<circle cx="83.1263" cy="75.1263" r="4.12632" fill="#3B82F6"/>
<circle cx="83.1263" cy="95.1684" r="4.12632" fill="#3B82F6"/>
<rect x="58.5894" y="59.7683" width="49.0526" height="50.2316" rx="11" stroke="#3B82F6" stroke-width="4"/>
<path d="M70.7368 84.8841L96.6737 84.8841" stroke="#FF0000" stroke-width="4" stroke-linecap="round"/>
<path d="M70.7368 84.8841L96.6737 84.8841" stroke="#FF0000" stroke-width="4" stroke-linecap="round"/>
<path d="M70.7368 84.8841L96.6737 84.8841" stroke="#3B82F6" stroke-width="4" stroke-linecap="round"/>
</svg>
